<svg xmlns="http://www.w3.org/2000/svg" viewBox="0 0 200 200">
    <!-- QR Code for invoq.me -->
    <rect width="200" height="200" fill="#ffffff"/>
    
    <g fill="#0f172a">
        <!-- Top-left finder pattern -->
        <rect x="10" y="10" width="50" height="50"/>
        <rect x="15" y="15" width="40" height="40" fill="white"/>
        <rect x="22" y="22" width="26" height="26"/>
        
        <!-- Top-right finder pattern -->
        <rect x="140" y="10" width="50" height="50"/>
        <rect x="145" y="15" width="40" height="40" fill="white"/>
        <rect x="152" y="22" width="26" height="26"/>
        
        <!-- Bottom-left finder pattern -->
        <rect x="10" y="140" width="50" height="50"/>
        <rect x="15" y="145" width="40" height="40" fill="white"/>
        <rect x="22" y="152" width="26" height="26"/>
        
        <!-- Data modules -->
        <rect x="70" y="10" width="8" height="8"/>
        <rect x="86" y="10" width="8" height="8"/>
        <rect x="110" y="10" width="8" height="8"/>
        <rect x="70" y="26" width="8" height="8"/>
        <rect x="94" y="26" width="8" height="8"/>
        <rect x="118" y="26" width="8" height="8"/>
        <rect x="78" y="42" width="8" height="8"/>
        <rect x="102" y="42" width="8" height="8"/>
        <rect x="126" y="42" width="8" height="8"/>
        
        <rect x="10" y="70" width="8" height="8"/>
        <rect x="26" y="70" width="8" height="8"/>
        <rect x="42" y="70" width="8" height="8"/>
        <rect x="10" y="86" width="8" height="8"/>
        <rect x="34" y="86" width="8" height="8"/>
        <rect x="10" y="102" width="8" height="8"/>
        <rect x="26" y="102" width="8" height="8"/>
        <rect x="42" y="102" width="8" height="8"/>
        <rect x="10" y="118" width="8" height="8"/>
        <rect x="34" y="118" width="8" height="8"/>
        
        <rect x="140" y="70" width="8" height="8"/>
        <rect x="156" y="70" width="8" height="8"/>
        <rect x="180" y="70" width="8" height="8"/>
        <rect x="148" y="86" width="8" height="8"/>
        <rect x="172" y="86" width="8" height="8"/>
        <rect x="140" y="102" width="8" height="8"/>
        <rect x="164" y="102" width="8" height="8"/>
        <rect x="180" y="102" width="8" height="8"/>
        <rect x="148" y="118" width="8" height="8"/>
        <rect x="172" y="118" width="8" height="8"/>
        
        <rect x="70" y="140" width="8" height="8"/>
        <rect x="86" y="140" width="8" height="8"/>
        <rect x="102" y="140" width="8" height="8"/>
        <rect x="78" y="156" width="8" height="8"/>
        <rect x="110" y="156" width="8" height="8"/>
        <rect x="70" y="172" width="8" height="8"/>
        <rect x="94" y="172" width="8" height="8"/>
        <rect x="118" y="172" width="8" height="8"/>
        
        <rect x="140" y="140" width="8" height="8"/>
        <rect x="164" y="140" width="8" height="8"/>
        <rect x="180" y="140" width="8" height="8"/>
        <rect x="148" y="156" width="8" height="8"/>
        <rect x="172" y="156" width="8" height="8"/>
        <rect x="140" y="172" width="8" height="8"/>
        <rect x="156" y="172" width="8" height="8"/>
        <rect x="180" y="172" width="8" height="8"/>
    </g>
    
    <!-- Center logo -->
    <rect x="70" y="70" width="60" height="60" rx="12" fill="white"/>
    <rect x="75" y="75" width="50" height="50" rx="10" fill="url(#centerGradient)"/>
    <defs>
        <linearGradient id="centerGradient" x1="0%" y1="0%" x2="100%" y2="100%">
            <stop offset="0%" style="stop-color:#6366f1"/>
            <stop offset="100%" style="stop-color:#8b5cf6"/>
        </linearGradient>
    </defs>
    <path d="M88 88 L100 82 L112 88 L112 112 L100 118 L88 112 Z" fill="none" stroke="white" stroke-width="2" stroke-linejoin="round"/>
    <path d="M100 82 L100 118" stroke="white" stroke-width="2"/>
</svg>
