<svg xmlns="http://www.w3.org/2000/svg" viewBox="0 0 200 200">
    <rect width="200" height="200" fill="#ffffff"/>
    <g fill="#0f172a">
        <rect x="10" y="10" width="50" height="50"/>
        <rect x="15" y="15" width="40" height="40" fill="white"/>
        <rect x="22" y="22" width="26" height="26"/>
        <rect x="140" y="10" width="50" height="50"/>
        <rect x="145" y="15" width="40" height="40" fill="white"/>
        <rect x="152" y="22" width="26" height="26"/>
        <rect x="10" y="140" width="50" height="50"/>
        <rect x="15" y="145" width="40" height="40" fill="white"/>
        <rect x="22" y="152" width="26" height="26"/>
        <rect x="78" y="10" width="8" height="8"/>
        <rect x="102" y="18" width="8" height="8"/>
        <rect x="118" y="10" width="8" height="8"/>
        <rect x="70" y="26" width="8" height="8"/>
        <rect x="94" y="34" width="8" height="8"/>
        <rect x="126" y="42" width="8" height="8"/>
    </g>
    <rect x="70" y="70" width="60" height="60" rx="12" fill="white"/>
    <defs>
        <linearGradient id="pdGrad" x1="0%" y1="0%" x2="100%" y2="100%">
            <stop offset="0%" style="stop-color:#6366f1"/>
            <stop offset="100%" style="stop-color:#8b5cf6"/>
        </linearGradient>
    </defs>
    <rect x="75" y="75" width="50" height="50" rx="10" fill="url(#pdGrad)"/>
    <text x="100" y="108" font-family="Inter, Arial, sans-serif" font-size="20" font-weight="bold" fill="white" text-anchor="middle">PD</text>
</svg>
